<?xml version="1.0" encoding="UTF-8"?>
<svg version="1.1" xmlns="http://www.w3.org/2000/svg" width="1024" height="408">
<path d="M0 0 C1.34307612 -0.00543056 2.68614628 -0.01255844 4.02920532 -0.02124023 C7.65341285 -0.03936947 11.2771614 -0.03244874 14.90137625 -0.01972389 C18.71055862 -0.00953765 22.51970388 -0.01900547 26.32888794 -0.02526855 C32.72584015 -0.03253047 39.1226072 -0.02299755 45.51953125 -0.00390625 C52.89107059 0.01784119 60.26216694 0.01082097 67.63369548 -0.01121187 C73.98562693 -0.02942991 80.33742588 -0.03189253 86.68937504 -0.0214572 C90.47295129 -0.01525486 94.25632015 -0.01429546 98.03988266 -0.02760315 C101.60076999 -0.03925422 105.16109294 -0.03096984 108.72192001 -0.00802612 C110.63412474 -0.00030996 112.54637782 -0.01201686 114.45855713 -0.02453613 C123.226625 0.06048093 131.72093195 1.33349891 138.85986328 6.83007812 C147.07233778 15.23808773 149.9554164 23.68203791 149.86581421 35.37815857 C149.87049418 36.33026043 149.87517415 37.2823623 149.87999594 38.26331574 C149.89189726 41.43211742 149.88250763 44.60048273 149.87304688 47.76928711 C149.87711475 50.04992931 149.88245785 52.33056954 149.88897705 54.61120605 C149.90263136 60.79094885 149.89735948 66.97054107 149.88783979 73.15028644 C149.88023257 79.62518383 149.88729185 86.10006852 149.89199829 92.57496643 C149.89780231 104.14458419 149.8884915 115.71413339 149.87322028 127.28374035 C149.85982127 137.75893693 149.86214382 148.23403374 149.87597656 158.70922852 C149.89205706 170.89218843 149.89799312 183.07507734 149.88913977 195.25804764 C149.88446969 201.70029441 149.88382008 208.14247256 149.89374924 214.58471489 C149.90243478 220.64308107 149.89636777 226.70125944 149.87906647 232.75960541 C149.87510996 234.97912599 149.87622129 237.19866246 149.88285446 239.41817665 C149.89109311 242.45566699 149.88072011 245.49256132 149.86581421 248.53001404 C149.87250637 249.4013375 149.87919854 250.27266096 149.8860935 251.17038816 C149.7873768 261.59306736 146.87069688 270.05803361 139.48486328 277.51757812 C132.69048801 282.99045408 125.5595545 284.76464967 116.87014771 284.77827454 C116.1354774 284.78210008 115.40080709 284.78592563 114.64387405 284.7898671 C112.19903189 284.80012911 109.75442758 284.79621799 107.30957031 284.79223633 C105.5497618 284.79658659 103.78995519 284.80177078 102.03015137 284.807724 C97.26149721 284.82109182 92.49292242 284.82169511 87.72425318 284.8191607 C83.73827729 284.81808943 79.75231736 284.82297837 75.7663449 284.82776612 C66.35984275 284.83885375 56.95338053 284.83930297 47.546875 284.83325195 C37.85443208 284.82721271 28.16213434 284.83952366 18.46971619 284.86082202 C10.13743451 284.87845594 1.80519897 284.88443653 -6.52710068 284.88118428 C-11.4988596 284.87937406 -16.47051496 284.88198151 -21.44225693 284.89589882 C-26.11923481 284.90850159 -30.79598689 284.90650991 -35.47296143 284.89348793 C-37.18494875 284.89112789 -38.89695209 284.89383623 -40.60892105 284.90211105 C-53.51207554 284.95995935 -62.57332269 284.19522274 -72.34326172 274.86523438 C-78.38690682 268.33244534 -79.66445742 262.34225791 -79.66230774 253.6494751 C-79.66598443 252.85132566 -79.66966112 252.05317623 -79.67344922 251.23084044 C-79.68447235 248.55330118 -79.68832756 245.87580074 -79.69213867 243.19824219 C-79.69840431 241.27962115 -79.7050512 239.36100132 -79.71205139 237.44238281 C-79.73308045 231.1393315 -79.74345198 224.83627996 -79.75341797 218.53320312 C-79.75746581 216.36276995 -79.76158274 214.1923369 -79.76576805 212.02190399 C-79.78481635 201.82586217 -79.79904874 191.62982757 -79.80738002 181.43377137 C-79.81715466 169.66582113 -79.84348172 157.89805887 -79.88388091 146.13017488 C-79.91404023 137.03280294 -79.92884869 127.93548491 -79.93216103 118.83806396 C-79.93451151 113.40514392 -79.94347209 107.9724248 -79.96862221 102.53955841 C-79.9919049 97.42759063 -79.99613528 92.31595604 -79.98586082 87.20394897 C-79.98536542 85.33027793 -79.99168716 83.45659047 -80.00541687 81.58296967 C-80.02314745 79.01945412 -80.01602439 76.45713289 -80.00288391 73.89361572 C-80.01385316 73.15702107 -80.0248224 72.42042641 -80.03612405 71.66151071 C-79.93362269 63.34510569 -76.09956609 57.60799614 -70.33862305 51.80761719 C-69.83555634 51.29593491 -69.33248962 50.78425262 -68.81417847 50.25706482 C-67.16847072 48.58887991 -65.50869227 46.93562399 -63.84716797 45.28320312 C-62.68566243 44.11645399 -61.52467574 42.94918814 -60.36418152 41.78143311 C-57.93729109 39.3441721 -55.50312197 36.91448293 -53.0637207 34.48974609 C-49.95283432 31.396043 -46.86275487 28.28245951 -43.7780962 25.16263199 C-41.38733121 22.74980941 -38.98487419 20.34889773 -36.57892418 17.95122528 C-35.43535169 16.8084677 -34.29556548 15.66190702 -33.15983009 14.51136017 C-31.56458089 12.89850994 -29.95393234 11.30268838 -28.33862305 9.70996094 C-26.97438957 8.3471701 -26.97438957 8.3471701 -25.58259583 6.95684814 C-17.49234357 0.52340956 -10.13303521 -0.06612578 0 0 Z M-4.51513672 19.51757812 C-4.52448242 20.68740234 -4.53382813 21.85722656 -4.54345703 23.0625 C-4.58353734 27.43136712 -4.6493453 31.79954336 -4.72265625 36.16796875 C-4.75076169 38.05329466 -4.77202778 39.93873612 -4.78613281 41.82421875 C-4.8077076 44.54551912 -4.85443021 47.26544544 -4.90576172 49.98632812 C-4.90760468 51.23681946 -4.90760468 51.23681946 -4.90948486 52.51257324 C-5.07434207 59.20284584 -6.76511898 64.73589032 -11.55029297 69.57617188 C-12.55382812 70.25873047 -12.55382812 70.25873047 -13.57763672 70.95507812 C-14.24923828 71.42816406 -14.92083984 71.90125 -15.61279297 72.38867188 C-18.62696861 74.17737159 -21.18726209 74.64897775 -24.61938477 74.72290039 C-25.85032112 74.75281822 -25.85032112 74.75281822 -27.10612488 74.78334045 C-27.98746597 74.80005295 -28.86880707 74.81676544 -29.77685547 74.83398438 C-30.68264847 74.85476547 -31.58844147 74.87554657 -32.52168274 74.8969574 C-35.41525688 74.96234371 -38.30892178 75.02128717 -41.20263672 75.08007812 C-43.16423465 75.12327372 -45.1258234 75.16688835 -47.08740234 75.2109375 C-51.89655411 75.31801395 -56.70579718 75.41931227 -61.51513672 75.51757812 C-61.58520597 99.01340069 -61.63811471 122.50920761 -61.67057323 146.0051136 C-61.68604461 156.9145774 -61.70713937 167.8239763 -61.74145508 178.73339844 C-61.77134907 188.24162682 -61.79070975 197.7498082 -61.7974022 207.25808227 C-61.80131445 212.29302595 -61.8105145 217.32783515 -61.83232689 222.36273575 C-61.85269198 227.10196417 -61.85897045 231.84100274 -61.85445976 236.58027077 C-61.85528495 238.31932291 -61.86125047 240.05838141 -61.87275314 241.79739571 C-61.88769777 244.17336025 -61.8840834 246.54860968 -61.87590027 248.92459106 C-61.88463879 249.61137566 -61.89337732 250.29816025 -61.90238065 251.0057565 C-61.85995841 255.56847483 -61.09599539 258.73788003 -58.51513672 262.51757812 C-54.10021825 265.50902881 -50.4885402 265.8938435 -45.22827148 265.89852905 C-44.51684022 265.90320902 -43.80540895 265.907889 -43.07241917 265.91271079 C-40.70026802 265.92462975 -38.32869791 265.91521605 -35.95654297 265.90576172 C-34.25112573 265.90982881 -32.54571113 265.91517146 -30.84030151 265.92169189 C-26.21636861 265.93535497 -21.59263678 265.93007101 -16.96870041 265.92055464 C-12.12683322 265.91295283 -7.28498311 265.9200051 -2.44311523 265.92471313 C5.6875314 265.93016916 13.81809625 265.92298307 21.94873047 265.90869141 C31.34527484 265.89236519 40.74162393 265.89765381 50.13816357 265.91417062 C58.20966608 265.92778983 66.28110984 265.92970302 74.35262012 265.92185462 C79.17170729 265.9171805 83.99070269 265.91654609 88.80978394 265.92646408 C93.3406576 265.93513777 97.87127978 265.92910447 102.40212631 265.91178131 C104.06376605 265.90781862 105.72542699 265.9089468 107.38705826 265.91556931 C109.65765609 265.9237837 111.92745118 265.91346528 114.19799805 265.89852905 C115.46781021 265.89739798 116.73762238 265.8962669 118.0459137 265.89510155 C121.9379356 265.46784043 124.24257396 264.71448135 127.48486328 262.51757812 C130.98287391 257.60053279 130.91264805 252.94454387 130.87254333 247.1427002 C130.88062164 245.73866023 130.88062164 245.73866023 130.88886315 244.30625582 C130.90315503 241.17408836 130.89603589 238.04234279 130.88891602 234.91015625 C130.89461888 232.66287394 130.90158281 230.41559454 130.90971375 228.1683197 C130.92766816 222.06718533 130.92647259 215.9661946 130.92077136 209.86504173 C130.91768322 204.77285807 130.9237677 199.68070215 130.92981011 194.58852243 C130.94466424 181.89061948 130.94103545 169.19281824 130.9289468 156.49492151 C130.91901201 145.47063092 130.93196001 134.44650812 130.95588099 123.42224342 C130.98026955 112.09701808 130.98948084 100.77189302 130.98322827 89.44663382 C130.97985413 83.09051428 130.98230438 76.73453342 130.99947929 70.37843323 C131.01492088 64.4029757 131.01102358 58.4278392 130.99217415 52.45239449 C130.98848077 50.25860723 130.99161844 48.06479633 131.00205994 45.87103081 C131.01521972 42.87780022 131.00376637 39.88564027 130.98606873 36.89245605 C130.99567373 36.02299866 131.00527874 35.15354127 131.01517481 34.25773668 C130.94964594 28.87654549 130.09372099 25.76730009 126.48486328 21.51757812 C123.15622591 19.29848654 122.14035532 19.26947726 118.26472473 19.27706909 C117.18358902 19.27431976 116.10245331 19.27157043 114.98855591 19.26873779 C113.8024472 19.27592834 112.6163385 19.2831189 111.39428711 19.29052734 C110.145392 19.29023529 108.89649689 19.28994324 107.60975647 19.28964233 C104.18432923 19.29079789 100.75914233 19.30083627 97.33375764 19.31479025 C93.75430651 19.32728299 90.17485226 19.32846696 86.59538269 19.33084106 C79.81683552 19.33706012 73.03835278 19.35347668 66.25983399 19.37354004 C58.54287074 19.39588581 50.82590443 19.40688914 43.10891688 19.41693091 C27.23419502 19.43784256 11.35953746 19.47302678 -4.51513672 19.51757812 Z " fill="#03AE8D" transform="translate(209.51513671875,54.482421875)"/>
<path d="M0 0 C0.96381592 0.00757324 1.92763184 0.01514648 2.9206543 0.02294922 C15.64382771 0.31686622 25.78861783 4.24192632 34.9375 13.1875 C39.81813848 20.43873431 41.125 25.56349013 41.125 34.4375 C33.865 34.4375 26.605 34.4375 19.125 34.4375 C17.805 31.1375 16.485 27.8375 15.125 24.4375 C9.432675 19.47185479 2.49867071 19.19201405 -4.875 19.4375 C-9.3672825 20.35272396 -12.7994639 21.98863293 -15.875 25.4375 C-17.88533556 29.45817111 -17.32171733 34.03353126 -16 38.1875 C-9.41203634 45.16299093 3.45000544 46.46104018 12.40429688 48.6171875 C22.98845799 51.31474361 33.35087102 55.46322656 40.125 64.4375 C44.49056472 72.18285677 44.5089043 82.63004445 42.46875 91.19140625 C38.70516732 100.51925125 31.24265379 107.43376343 22.125 111.4375 C14.45159034 114.09798585 7.28006876 114.95674967 -0.8125 114.875 C-2.39236694 114.86364014 -2.39236694 114.86364014 -4.00415039 114.85205078 C-16.45168802 114.58788648 -26.3704767 111.28373178 -35.65625 102.8125 C-42.35041121 95.72456461 -42.91104782 88.07702184 -43.875 78.4375 C-36.285 78.4375 -28.695 78.4375 -20.875 78.4375 C-19.885 81.4075 -18.895 84.3775 -17.875 87.4375 C-13.77043833 91.76392986 -9.1560763 93.2238044 -3.2890625 93.7734375 C4.27631446 93.85143108 9.84149843 93.87291287 16.125 89.4375 C18.5181508 85.5941949 18.65432432 81.85735805 18.125 77.4375 C17.10365842 74.44156471 16.13948155 73.01192125 13.37011719 71.44384766 C7.16435667 68.63323687 0.94281476 67.05234673 -5.6875 65.5625 C-17.40737419 62.76315282 -29.46376549 59.78019774 -36.875 49.4375 C-41.39568738 41.92101381 -41.85180571 34.02734812 -40.875 25.4375 C-38.96664155 17.88311065 -34.07589152 11.44371419 -27.7734375 6.93359375 C-19.01799781 1.75148722 -10.08706923 -0.11153758 0 0 Z " fill="#1E3535" transform="translate(484.875,207.5625)"/>
<path d="M0 0 C7.26 0 14.52 0 22 0 C22.33 12.87 22.66 25.74 23 39 C25.475 36.03 25.475 36.03 28 33 C30.5 31.35546875 30.5 31.35546875 33 30.1875 C34.2375 29.59001953 34.2375 29.59001953 35.5 28.98046875 C44.14652175 25.589411 52.8814427 26.24720462 61.38671875 29.67578125 C68.57258765 33.31705114 73.24159993 38.44167213 76 46 C77.05885151 49.42533265 77.1207947 52.56900664 77.11352539 56.14550781 C77.11341209 58.00698456 77.11341209 58.00698456 77.11329651 59.90606689 C77.10819031 61.25508667 77.10297432 62.60410604 77.09765625 63.953125 C77.09579024 65.33746286 77.0943672 66.72180138 77.09336853 68.10614014 C77.08955773 71.74261308 77.07973975 75.37904582 77.06866455 79.01550293 C77.0584195 82.72907976 77.05386429 86.4426631 77.04882812 90.15625 C77.03811615 97.43752041 77.02053103 104.71874944 77 112 C69.74 112 62.48 112 55 112 C54.98541748 110.40607422 54.97083496 108.81214844 54.95581055 107.16992188 C54.89767986 101.23577856 54.82044702 95.30200881 54.73754883 89.36816406 C54.70436906 86.80377278 54.67631568 84.23930969 54.65356445 81.67480469 C54.6198915 77.98080958 54.56756693 74.2874684 54.51171875 70.59375 C54.50532883 69.4538562 54.4989389 68.3139624 54.49235535 67.13952637 C54.3752024 60.74442393 53.78222156 55.79442086 51 50 C47.09712465 46.441496 42.14112322 45.87125735 37 46 C32.44937737 46.83848682 29.14289412 48.45992039 26.0625 51.9375 C23.21401529 56.16706821 22.87860677 59.28359383 22.79467773 64.31933594 C22.77473251 65.38013367 22.75478729 66.4409314 22.73423767 67.53387451 C22.70916893 69.24187225 22.70916893 69.24187225 22.68359375 70.984375 C22.66281265 72.15510559 22.64203156 73.32583618 22.62062073 74.53204346 C22.55524372 78.27130269 22.49629509 82.01063205 22.4375 85.75 C22.39430353 88.2851635 22.35068888 90.82031991 22.30664062 93.35546875 C22.19957437 99.57024065 22.09827329 105.78508309 22 112 C14.74 112 7.48 112 0 112 C0 75.04 0 38.08 0 0 Z " fill="#1E3534" transform="translate(632,209)"/>
<path d="M0 0 C7.26 0 14.52 0 22 0 C22.33 20.13 22.66 40.26 23 61 C25.97 57.37 28.94 53.74 32 50 C34.05332915 47.57400258 36.11020584 45.15498802 38.1875 42.75 C38.66896484 42.19054687 39.15042969 41.63109375 39.64648438 41.0546875 C40.61353494 39.93099287 41.59038578 38.81565333 42.57714844 37.70922852 C44.04751103 36.0188084 44.04751103 36.0188084 45.22753906 34.05444336 C47.4589339 30.76225582 48.94348583 29.23418999 52.90991211 28.35498047 C56.41607864 28.08674359 59.85897869 28.03012061 63.375 28.0625 C65.19451172 28.03833008 65.19451172 28.03833008 67.05078125 28.01367188 C70.03500584 27.97842513 73.01577367 27.97488239 76 28 C74.11475376 32.07875793 71.38213651 35.02257406 68.3125 38.25 C67.21937321 39.4173334 66.12692172 40.58529955 65.03515625 41.75390625 C64.50937988 42.31480957 63.98360352 42.87571289 63.44189453 43.45361328 C57.62174853 49.69553756 52.2838884 56.3024999 47 63 C48.48010865 67.32770899 50.79968709 70.73724334 53.5 74.375 C57.57795643 79.97130487 61.48491627 85.65328367 65.29638672 91.43383789 C67.36989756 94.572069 69.46653485 97.6877561 71.62890625 100.765625 C72.25817017 101.66172485 72.25817017 101.66172485 72.90014648 102.57592773 C74.05706652 104.2161853 75.21976232 105.85236465 76.3828125 107.48828125 C78 110 78 110 78 112 C69.50085311 114.09019377 59.13556398 116.21216083 51 112 C41.1173324 103.73652458 34.89560212 90.22489353 29 79 C26.53199953 80.15173355 24.95216435 81.04783565 23 83 C22.62703444 86.00972657 22.62703444 86.00972657 22.5859375 89.5390625 C22.54726563 90.84101563 22.50859375 92.14296875 22.46875 93.484375 C22.43729237 94.86457862 22.40604509 96.24478704 22.375 97.625 C22.33682066 99.01304541 22.29776895 100.40106711 22.2578125 101.7890625 C22.16327312 105.19248027 22.08053771 108.59622212 22 112 C14.74 112 7.48 112 0 112 C0 75.04 0 38.08 0 0 Z " fill="#1D3434" transform="translate(622,70)"/>
<path d="M0 0 C25.08 0 50.16 0 76 0 C76 6.27 76 12.54 76 19 C75 20 75 20 72.94358826 20.12025452 C72.03979935 20.11803391 71.13601044 20.11581329 70.20483398 20.11352539 C69.18385117 20.11344986 68.16286835 20.11337433 67.11094666 20.11329651 C66.0005452 20.10813522 64.89014374 20.10297394 63.74609375 20.09765625 C62.61551041 20.0962413 61.48492706 20.09482635 60.32008362 20.09336853 C56.69252935 20.08775019 53.06503576 20.07519458 49.4375 20.0625 C46.98502693 20.05748736 44.5325529 20.05292405 42.08007812 20.04882812 C36.05334296 20.0386237 30.02673978 20.01905186 24 20 C24 28.91 24 37.82 24 47 C27.30902344 46.98839844 30.61804688 46.97679687 34.02734375 46.96484375 C37.21769108 46.95705419 40.40803737 46.95097686 43.59838867 46.94506836 C45.82267732 46.94002683 48.04696263 46.93319377 50.27124023 46.92456055 C53.46078309 46.91248702 56.65028229 46.90677004 59.83984375 46.90234375 C61.34139259 46.89460182 61.34139259 46.89460182 62.87327576 46.88670349 C63.79415482 46.88662796 64.71503387 46.88655243 65.66381836 46.88647461 C66.88626503 46.88314369 66.88626503 46.88314369 68.13340759 46.87974548 C70 47 70 47 71 48 C71 53.94 71 59.88 71 66 C55.49 66 39.98 66 24 66 C24 81.18 24 96.36 24 112 C16.41 112 8.82 112 1 112 C-0.18324441 109.63351117 -0.12326046 108.2226868 -0.12025452 105.58346558 C-0.12231651 104.19100616 -0.12231651 104.19100616 -0.12442017 102.77041626 C-0.12082489 101.74902557 -0.11722961 100.72763489 -0.11352539 99.67529297 C-0.11367142 98.60210815 -0.11381744 97.52892334 -0.1139679 96.42321777 C-0.11326917 92.86285405 -0.10547861 89.30254213 -0.09765625 85.7421875 C-0.09579193 83.27881906 -0.09436809 80.81545024 -0.09336853 78.3520813 C-0.08954446 71.85832705 -0.07971511 65.36459505 -0.06866455 58.87084961 C-0.05665282 51.08486911 -0.05204766 43.29888077 -0.04621124 35.51289368 C-0.03650331 23.67524696 -0.01734595 11.8376491 0 0 Z " fill="#1E3535" transform="translate(447,70)"/>
<path d="M0 0 C5.82983884 4.59360069 9.10058469 10.47211946 10.31982422 17.80688477 C10.97717732 23.57513752 10.89294232 29.35813903 10.8828125 35.15625 C10.88376923 36.36334122 10.88472595 37.57043243 10.88571167 38.81410217 C10.88638948 41.35141045 10.88456312 43.88872049 10.88037109 46.42602539 C10.87498444 50.32767566 10.88034631 54.22921251 10.88671875 58.13085938 C10.88605854 60.59765651 10.88477856 63.06445356 10.8828125 65.53125 C10.88483673 66.70405014 10.88686096 67.87685028 10.88894653 69.08518982 C10.88421829 70.69805626 10.88421829 70.69805626 10.87939453 72.34350586 C10.87859894 73.2942247 10.87780334 74.24494354 10.87698364 75.22447205 C10.75 77.37890625 10.75 77.37890625 9.75 78.37890625 C8.18827255 78.46576228 6.62270656 78.48592844 5.05859375 78.4765625 C4.11435547 78.47333984 3.17011719 78.47011719 2.19726562 78.46679688 C1.20404297 78.45841797 0.21082031 78.45003906 -0.8125 78.44140625 C-1.80958984 78.43689453 -2.80667969 78.43238281 -3.83398438 78.42773438 C-6.30604849 78.41590632 -8.77799518 78.39942474 -11.25 78.37890625 C-11.745 73.92390625 -11.745 73.92390625 -12.25 69.37890625 C-12.7346875 69.84941406 -13.219375 70.31992188 -13.71875 70.8046875 C-21.96891632 78.46782275 -28.1786812 79.99273625 -39.48828125 79.72265625 C-47.71845533 78.97057388 -54.35585528 76.50218261 -59.87890625 70.2109375 C-64.99314322 63.3773844 -64.98166957 56.70551202 -64.25 48.37890625 C-63.25913553 42.88005476 -60.9366694 39.14564624 -56.45727539 35.78320312 C-48.62504654 30.80023881 -39.40113455 29.52025075 -30.375 28.31640625 C-28.18870432 28.02327878 -26.00370876 27.7202457 -23.8203125 27.40625 C-22.86914551 27.27984131 -21.91797852 27.15343262 -20.93798828 27.02319336 C-17.86307265 26.28616317 -15.76949174 25.28838909 -13.25 23.37890625 C-12.75430965 19.90907377 -12.46985929 17.56964734 -14.4375 14.56640625 C-19.52940299 11.23033188 -24.28198217 10.71579316 -30.25 11.37890625 C-36.11806064 13.33492646 -36.26211773 14.40314172 -39.25 20.37890625 C-46.84 19.71890625 -54.43 19.05890625 -62.25 18.37890625 C-61.01088496 9.705101 -58.16074611 5.49878911 -51.4375 0.06640625 C-37.16621718 -9.99457474 -14.26802235 -9.63666832 0 0 Z M-26.1875 42.12890625 C-27.52844727 42.36480469 -27.52844727 42.36480469 -28.89648438 42.60546875 C-33.98174916 43.58703434 -37.51200875 44.54274554 -41.25 48.37890625 C-42.81935594 51.51761813 -42.60201103 53.91746447 -42.25 57.37890625 C-39.50425937 60.70269754 -37.31782324 63.16655403 -32.9296875 63.6171875 C-26.52493282 63.78667265 -21.41064969 63.44671248 -16.25 59.37890625 C-11.34458389 53.49240692 -11.81121746 47.80164417 -12.25 40.37890625 C-17.06952992 40.37890625 -21.46852078 41.22101936 -26.1875 42.12890625 Z " fill="#213837" transform="translate(831.25,103.62109375)"/>
<path d="M0 0 C5.75406331 5.36301046 8.81038923 11.99125821 9.13197327 19.79206848 C9.12975266 20.86462387 9.12753204 21.93717926 9.12524414 23.04223633 C9.12513084 24.87356865 9.12513084 24.87356865 9.12501526 26.74189758 C9.11985397 28.05039169 9.11469269 29.3588858 9.109375 30.70703125 C9.10750836 32.06751961 9.10608562 33.42800865 9.10508728 34.78849792 C9.1012815 38.35755287 9.09146789 41.92656669 9.0803833 45.49560547 C9.07012738 49.14224695 9.06558072 52.78889511 9.06054688 56.43554688 C9.04984378 63.58204801 9.03279079 70.72852131 9.01171875 77.875 C5.53256934 77.90387814 2.05345044 77.92175687 -1.42578125 77.9375 C-2.91561523 77.95006836 -2.91561523 77.95006836 -4.43554688 77.96289062 C-5.8519043 77.96772461 -5.8519043 77.96772461 -7.296875 77.97265625 C-8.17142334 77.97789307 -9.04597168 77.98312988 -9.94702148 77.98852539 C-11.98828125 77.875 -11.98828125 77.875 -12.98828125 76.875 C-13.44287983 74.22036879 -13.69071363 71.55310862 -13.98828125 68.875 C-14.47296875 69.34550781 -14.95765625 69.81601563 -15.45703125 70.30078125 C-23.78710547 78.03813865 -29.9586114 79.44241468 -41.3671875 79.1484375 C-50.70041523 78.44366302 -56.80061346 74.97224215 -62.98828125 67.875 C-66.64623083 62.18485621 -66.79900108 55.43363233 -65.98828125 48.875 C-64.28371458 42.09525462 -61.91452305 37.63588422 -55.98828125 33.875 C-47.20387422 29.64547069 -37.0150863 28.7077765 -27.46484375 27.125 C-26.73587891 26.99931641 -26.00691406 26.87363281 -25.25585938 26.74414062 C-23.85280508 26.50241113 -22.44783126 26.27151343 -21.04101562 26.05273438 C-18.90197056 25.71054141 -18.90197056 25.71054141 -15.98828125 24.875 C-13.6430519 21.98987022 -13.6430519 21.98987022 -14.11328125 18.375 C-14.67029429 14.87142711 -14.67029429 14.87142711 -16.86328125 13 C-22.01885205 10.27058016 -27.4170716 10.08139786 -33.0625 11.3359375 C-35.20836311 12.0287735 -35.20836311 12.0287735 -37.98828125 13.875 C-39.20763671 16.92279423 -39.20763671 16.92279423 -39.98828125 19.875 C-42.67602505 19.73290331 -45.36341427 19.5864277 -48.05078125 19.4375 C-48.80294922 19.39818359 -49.55511719 19.35886719 -50.33007812 19.31835938 C-54.93526866 19.05919281 -59.43194849 18.5950579 -63.98828125 17.875 C-63.71701508 11.36461194 -61.4135789 7.59787731 -56.98828125 2.875 C-42.3931196 -10.48634386 -16.02722101 -11.50967397 0 0 Z M-41.76171875 46.35546875 C-43.69648064 48.75235529 -44.15186875 50.90010559 -44.2265625 53.9453125 C-43.85699311 56.93821867 -42.97664381 58.62152243 -40.98828125 60.875 C-34.82819774 63.88636158 -28.06333105 63.9000166 -21.61328125 61.75 C-17.30453189 58.67232188 -13.91481242 55.26662289 -12.98828125 49.875 C-12.92203618 48.12613019 -12.9027553 46.37497252 -12.92578125 44.625 C-12.93480469 43.73296875 -12.94382812 42.8409375 -12.953125 41.921875 C-12.96472656 41.24640625 -12.97632813 40.5709375 -12.98828125 39.875 C-22.06556491 39.875 -34.32372903 40.73452218 -41.76171875 46.35546875 Z " fill="#1E3535" transform="translate(594.98828125,104.125)"/>
<path d="M0 0 C0.86625 0.721875 1.7325 1.44375 2.625 2.1875 C3.19605469 2.65671875 3.76710938 3.1259375 4.35546875 3.609375 C12.67366988 11.05851034 15.76508059 21.30374392 16.625 32.1875 C16.625 35.8175 16.625 39.4475 16.625 43.1875 C-2.185 43.1875 -20.995 43.1875 -40.375 43.1875 C-38.6528397 52.67561525 -38.6528397 52.67561525 -32.6875 59.44140625 C-26.85656361 62.81535533 -20.83504679 63.29189254 -14.32421875 61.6796875 C-11.15259008 60.49796718 -9.57588385 59.52951764 -7.8515625 56.59375 C-4.97084977 53.79482407 -4.25855901 53.81788207 -0.390625 53.69921875 C1.53185727 53.732365 3.45402995 53.79186881 5.375 53.875 C6.35855469 53.89755859 7.34210938 53.92011719 8.35546875 53.94335938 C10.7801947 54.00221195 13.20181983 54.08436569 15.625 54.1875 C14.50420468 62.50498104 10.52510707 68.32232096 4.015625 73.578125 C-6.81954452 80.87238945 -18.72362892 81.56679521 -31.375 80.1875 C-35.41031653 79.36009833 -38.75966001 78.14453902 -42.375 76.1875 C-43.56802734 75.55134766 -43.56802734 75.55134766 -44.78515625 74.90234375 C-54.33021377 69.18168323 -60.08221581 60.22470544 -63.09375 49.66796875 C-65.91923512 36.97187444 -64.06996476 23.89066605 -57.90625 12.46484375 C-51.64947963 2.68126177 -42.7415358 -2.72086605 -31.625 -5.5 C-20.1924908 -6.59927973 -10.27303021 -5.51699771 0 0 Z M-38.3125 18.5625 C-39.75042091 21.81268131 -39.75042091 21.81268131 -40.375 28.1875 C-29.155 28.1875 -17.935 28.1875 -6.375 28.1875 C-8.11320479 19.30842858 -8.11320479 19.30842858 -13.375 13.1875 C-21.96531539 7.78787318 -32.30336162 11.19645941 -38.3125 18.5625 Z " fill="#203636" transform="translate(601.375,241.8125)"/>
<path d="M0 0 C6.41775436 6.30966586 9.14356211 13.71422481 9.34057617 22.59960938 C9.34010471 25.18103832 9.32336512 27.76249998 9.29296875 30.34375 C9.28736365 31.72236669 9.28309788 33.10098942 9.28010559 34.47961426 C9.26872857 38.08330189 9.23932457 41.68661862 9.20599365 45.29016113 C9.17513727 48.97724391 9.16156722 52.66438744 9.14648438 56.3515625 C9.11444653 63.56789587 9.06173875 70.78384841 9 78 C2.07 78 -4.86 78 -12 78 C-12.495 73.545 -12.495 73.545 -13 69 C-13.4846875 69.47050781 -13.969375 69.94101562 -14.46875 70.42578125 C-22.82722021 78.18951416 -29.78708634 79.75577184 -41.08203125 79.34375 C-49.19128811 78.63226984 -55.14921688 75.93144925 -60.59375 69.83203125 C-65.74695063 63.11855599 -65.88823529 56.24362194 -65 48 C-63.63454911 42.73877115 -61.36367616 38.31715647 -56.86523438 35.04321289 C-48.85900586 30.56538377 -40.03019368 29.10345119 -31.0625 27.875 C-28.86501855 27.56599912 -26.66835105 27.25113828 -24.47265625 26.9296875 C-23.51625244 26.79804199 -22.55984863 26.66639648 -21.57446289 26.53076172 C-19.01533707 26.00316195 -17.17349565 25.44817649 -15 24 C-13.73993685 20.68190536 -13.73993685 20.68190536 -14 17 C-16.50499726 13.79917017 -18.1382074 12.2872642 -22 11 C-27.63208383 10.44215551 -32.25396604 10.60997574 -37 14 C-38.053037 15.97259045 -39.05982059 17.97119181 -40 20 C-42.70860124 19.85823579 -45.41680752 19.71171784 -48.125 19.5625 C-49.26582031 19.50352539 -49.26582031 19.50352539 -50.4296875 19.44335938 C-54.68509203 19.20490998 -58.80370826 18.79769763 -63 18 C-62.69307336 10.63376074 -59.45989845 6.22730024 -54.140625 1.265625 C-39.68022178 -10.4183808 -15.18038283 -10.35621972 0 0 Z M-24.8125 41.3125 C-26.00456055 41.48942383 -26.00456055 41.48942383 -27.22070312 41.66992188 C-32.78048825 42.56666141 -37.63630985 43.79388919 -41.875 47.75 C-43.52016849 51.04033698 -43.44565624 53.37108493 -43 57 C-40.86320715 60.38939556 -39.8225233 61.72582557 -36 63 C-29.12918461 63.712529 -23.25118248 63.78388671 -17.55859375 59.53515625 C-14.0227584 56.05249136 -13.10916879 52.8812575 -12.83203125 48.10546875 C-12.81463491 45.39511831 -12.86784192 42.70679337 -13 40 C-17.02086088 40 -20.84894577 40.67566994 -24.8125 41.3125 Z " fill="#1E3534" transform="translate(787,243)"/>
<path d="M0 0 C7.26 0 14.52 0 22 0 C22 6.27 22 12.54 22 19 C30.415 18.505 30.415 18.505 39 18 C39 23.61 39 29.22 39 35 C33.39 35 27.78 35 22 35 C22.11815005 41.35388957 22.24239165 47.70761953 22.37231445 54.0612793 C22.41566313 56.2233556 22.45733825 58.38546613 22.49731445 60.54760742 C22.55501844 63.65293702 22.61871272 66.75809436 22.68359375 69.86328125 C22.70030624 70.83211746 22.71701874 71.80095367 22.73423767 72.79914856 C22.7641555 74.15020943 22.7641555 74.15020943 22.79467773 75.52856445 C22.81799416 76.71770195 22.81799416 76.71770195 22.84178162 77.93086243 C22.93081226 80.19739774 22.93081226 80.19739774 24 83 C26.64458379 84.32229189 28.67761301 84.09677194 31.625 84.0625 C32.62789062 84.05347656 33.63078125 84.04445313 34.6640625 84.03515625 C35.43492187 84.02355469 36.20578125 84.01195312 37 84 C37.33848652 85.89492006 37.67056911 87.79098466 38 89.6875 C38.185625 90.74324219 38.37125 91.79898438 38.5625 92.88671875 C38.95068074 95.64904062 39.08259976 98.21742043 39 101 C28.44890313 104.18523679 18.98166956 104.03992496 9 99 C4.36818974 95.23665417 1.17002875 90.89937874 0 85 C-0.0848933 83.32040314 -0.1177722 81.63779023 -0.11352539 79.95605469 C-0.11344986 78.95531921 -0.11337433 77.95458374 -0.11329651 76.92352295 C-0.10813522 75.85047913 -0.10297394 74.7774353 -0.09765625 73.671875 C-0.0962413 72.56773254 -0.09482635 71.46359009 -0.09336853 70.32598877 C-0.08777258 66.80063158 -0.07522079 63.27533798 -0.0625 59.75 C-0.05748448 57.35937592 -0.05292166 54.96875084 -0.04882812 52.578125 C-0.03780447 46.71872551 -0.02054257 40.85937354 0 35 C-3.96 35 -7.92 35 -12 35 C-12 29.72 -12 24.44 -12 19 C-8.04 19 -4.08 19 0 19 C0 12.73 0 6.46 0 0 Z " fill="#1C3332" transform="translate(717,80)"/>
<path d="M0 0 C1.0809494 -0.00860046 2.1618988 -0.01720093 3.27560425 -0.02606201 C4.46680374 -0.03032196 5.65800323 -0.03458191 6.88529968 -0.03897095 C8.13577087 -0.04714844 9.38624207 -0.05532593 10.67460632 -0.06375122 C14.82776059 -0.08863839 18.98087842 -0.10527879 23.13407898 -0.11953735 C24.56349888 -0.12489693 25.99291872 -0.13027444 27.42233849 -0.13566971 C33.3680614 -0.15729853 39.31378158 -0.17603547 45.25953388 -0.1872921 C53.78213705 -0.20353313 62.30428443 -0.23671388 70.82671577 -0.29369295 C76.81829217 -0.33238631 82.80974664 -0.35192402 88.80144471 -0.35721266 C92.38050488 -0.360867 95.95907895 -0.3728956 99.53800392 -0.4053154 C103.53164931 -0.44097334 107.52431455 -0.43702686 111.51811218 -0.42959595 C112.70323898 -0.44600128 113.88836578 -0.46240662 115.10940552 -0.47930908 C124.03002003 -0.41119327 124.03002003 -0.41119327 127.1257019 2.5614624 C128.81104867 5.02977881 129.60110085 6.21045104 129.58329773 9.15390015 C129.60778992 9.79327515 129.6322821 10.43265015 129.65751648 11.09140015 C128.37629729 14.56054749 126.08367259 16.48383089 122.89579773 18.15390015 C118.78069916 18.89456978 114.7159403 18.82678577 110.54399109 18.78500366 C108.6820385 18.79573662 108.6820385 18.79573662 106.7824707 18.8066864 C103.38948452 18.82067119 99.99802883 18.81229435 96.6051681 18.7925961 C93.04941232 18.77617272 89.49370504 18.78502744 85.93792725 18.79011536 C79.96859682 18.79463165 73.99958023 18.77879422 68.03031921 18.75082397 C61.13414644 18.71875916 54.2385391 18.71879479 47.3423261 18.73603874 C40.70009535 18.75191406 34.05807142 18.74516487 27.41584969 18.72810173 C24.59255513 18.7212386 21.76942674 18.72225593 18.94613457 18.72964668 C15.00327444 18.73874527 11.06099326 18.71475199 7.11820984 18.68734741 C5.36397202 18.69713623 5.36397202 18.69713623 3.57429504 18.7071228 C-4.33167919 18.61356076 -4.33167919 18.61356076 -8.31512451 16.24336243 C-10.70216058 13.45554519 -11.06212468 11.69149455 -11.31513977 8.12265015 C-10.97286388 4.92807516 -9.3779635 3.29773217 -7.10420227 1.15390015 C-4.57982387 -0.10828905 -2.82660024 0.01670356 0 0 Z " fill="#01AC8B" transform="translate(186.1042022705078,228.84609985351563)"/>
<path d="M0 0 C7.02932635 7.58697646 8.64286772 13.56067009 8.4140625 23.82421875 C7.93633287 28.37052493 6.66310243 31.49922376 4.05859375 35.20703125 C3.48109375 36.09390625 2.90359375 36.98078125 2.30859375 37.89453125 C-3.79266375 44.16526812 -11.0878622 47.19625184 -19.81640625 47.51953125 C-29.16869518 47.23698476 -35.03030839 44.16112032 -41.765625 37.65625 C-47.2885342 31.43925885 -48.63815284 25.36835009 -48.32421875 17.1328125 C-47.35309697 9.71066743 -43.62665888 3.08010493 -37.94140625 -1.79296875 C-26.11659028 -9.33739679 -10.80117673 -9.97533223 0 0 Z " fill="#04AF8E" transform="translate(223.94140625,160.79296875)"/>
<path d="M0 0 C0 6.93 0 13.86 0 21 C-3.3 20.67 -6.6 20.34 -10 20 C-15.31453106 21.03529826 -18.6468277 21.80004353 -21.7175293 26.35546875 C-24.90441925 31.80422266 -24.72873971 37.2034596 -24.70703125 43.375 C-24.72215256 44.5400708 -24.73727386 45.7051416 -24.75285339 46.90551758 C-24.7956263 50.60387688 -24.804559 54.3014183 -24.8125 58 C-24.83565217 60.51694867 -24.86101899 63.033878 -24.88867188 65.55078125 C-24.95556574 71.70096276 -24.97663596 77.84888507 -25 84 C-32.59 84 -40.18 84 -48 84 C-48 56.61 -48 29.22 -48 1 C-40.74 1 -33.48 1 -26 1 C-25.67 4.3 -25.34 7.6 -25 11 C-24.175 9.9275 -23.35 8.855 -22.5 7.75 C-16.34713124 0.56438022 -9.16152178 -1.5269203 0 0 Z " fill="#1F3736" transform="translate(861,237)"/>
<path d="M0 0 C0.82845428 -0.0071553 1.65690857 -0.01431061 2.51046753 -0.02168274 C3.86873405 -0.02571609 3.86873405 -0.02571609 5.25444031 -0.02983093 C6.21084412 -0.03640213 7.16724792 -0.04297333 8.15263367 -0.04974365 C11.32157976 -0.06947452 14.49047849 -0.0811382 17.6594696 -0.09111023 C18.74145315 -0.09518576 19.8234367 -0.09926128 20.93820763 -0.10346031 C26.66389653 -0.12431916 32.38956147 -0.13862226 38.11528015 -0.147995 C44.03030465 -0.15906497 49.94495353 -0.19347249 55.85984516 -0.23316669 C60.40747785 -0.25930348 64.95502059 -0.26768419 69.50272179 -0.27127647 C71.6832095 -0.27614923 73.86369303 -0.28778274 76.04410744 -0.30631447 C79.09629283 -0.33064508 82.14750025 -0.32975188 85.19975281 -0.32279968 C86.54891029 -0.34201477 86.54891029 -0.34201477 87.92532349 -0.36161804 C93.54295938 -0.31500889 96.61034203 0.46722993 100.92118835 4.14717102 C102.471433 7.2476603 102.21110851 9.7261132 101.92118835 13.14717102 C99.7843955 16.53656658 98.74371165 17.87299659 94.92118835 19.14717102 C93.54911095 19.24124361 92.17297077 19.28199474 90.79768372 19.28761292 C89.95937012 19.29332306 89.12105652 19.2990332 88.25733948 19.30491638 C86.88269028 19.30659317 86.88269028 19.30659317 85.48027039 19.30830383 C84.51250671 19.31326874 83.54474304 19.31823364 82.5476532 19.323349 C79.34142856 19.33797191 76.13525338 19.34477254 72.92900085 19.35029602 C70.70324197 19.35604697 68.4774831 19.36180471 66.25172424 19.36756897 C61.58278675 19.37807905 56.91386648 19.38392181 52.24491882 19.3874054 C46.26036357 19.39289283 40.27603553 19.4169263 34.29155159 19.44537735 C29.6933475 19.46399365 25.09519828 19.46920878 20.49695969 19.47074127 C18.29053885 19.47377015 16.08411904 19.48180655 13.87773514 19.49492645 C10.79194551 19.51196704 7.70671288 19.51011151 4.62089539 19.50361633 C3.70851105 19.51283112 2.79612671 19.5220459 1.85609436 19.53153992 C-2.95222072 19.49981038 -6.17350247 19.27799233 -10.07881165 16.14717102 C-12.17982759 13.47315072 -12.0772814 12.10432417 -11.95381165 8.64717102 C-11.00137969 4.83744321 -10.15674999 3.50088858 -7.07881165 1.14717102 C-4.36967057 0.244124 -2.78370282 0.01653381 0 0 Z " fill="#0BB090" transform="translate(187.0788116455078,269.8528289794922)"/>
<path d="M0 0 C7.59 0 15.18 0 23 0 C23 27.39 23 54.78 23 83 C15.41 83 7.82 83 0 83 C0 55.61 0 28.22 0 0 Z " fill="#1F3837" transform="translate(871,238)"/>
<path d="M0 0 C1.30823227 -0.0127597 2.61646454 -0.02551941 3.96434021 -0.03866577 C5.39427544 -0.04172306 6.82421264 -0.04395102 8.25415039 -0.04541016 C9.72001781 -0.05183692 11.18588394 -0.05856519 12.65174866 -0.06558228 C15.7242429 -0.07755746 18.79662469 -0.08126282 21.86914062 -0.08007812 C25.80479893 -0.07987482 29.73973603 -0.10718665 33.67522335 -0.14162254 C36.70271614 -0.16386721 39.73003463 -0.16791645 42.75760078 -0.16685867 C44.20847626 -0.16921794 45.6593563 -0.17805992 47.11015129 -0.19352341 C49.13974581 -0.21313192 51.16955185 -0.20483607 53.19921875 -0.1953125 C54.3537706 -0.19816254 55.50832245 -0.20101257 56.69786072 -0.20394897 C60.29560594 0.39575851 61.43177778 1.47079576 63.66430664 4.29052734 C65.25370011 7.46931429 65.08007375 9.78620455 64.66430664 13.29052734 C61.8810528 16.83238266 60.12247257 18.06536991 55.64083862 18.75738525 C51.76753568 18.95417293 47.91180598 18.98658811 44.03540039 18.95458984 C42.59863373 18.95796168 41.16186986 18.96281737 39.72511292 18.96908569 C36.72157494 18.97643757 33.71878295 18.96580601 30.71533203 18.94238281 C26.87259656 18.91386832 23.03160519 18.93032372 19.18893337 18.96024513 C16.22478674 18.97834293 13.26105142 18.97254959 10.29689217 18.95960617 C8.88035943 18.95628026 7.46378888 18.96033063 6.04730034 18.97200394 C4.0660464 18.98475246 2.08466078 18.96186354 0.10351562 18.9375 C-1.02200211 18.93352203 -2.14751984 18.92954407 -3.30714417 18.92544556 C-7.29607424 18.08918892 -8.79325356 16.40619742 -11.33569336 13.29052734 C-12.55580735 9.63018539 -12.68832418 8.06631515 -11.08569336 4.54052734 C-7.75378283 0.25664238 -5.1750188 0.03419462 0 0 Z " fill="#03AE8D" transform="translate(250.335693359375,112.70947265625)"/>
<path d="M0 0 C1.09824097 -0.00096176 2.19648193 -0.00192352 3.32800293 -0.00291443 C4.57609741 -0.01544754 5.82419189 -0.02798065 7.11010742 -0.04089355 C8.46855716 -0.02862519 9.82699692 -0.01520516 11.1854248 -0.00071716 C12.58260279 -0.00154611 13.97978068 -0.00400649 15.37695312 -0.00802612 C18.30250469 -0.01088241 21.22728992 0.00379847 24.15270996 0.03126526 C27.89902742 0.06534951 31.64397491 0.05932923 35.39035797 0.04060268 C38.27467223 0.03002392 41.15866876 0.0389781 44.04295349 0.0539875 C45.42401689 0.05916346 46.80511354 0.05869458 48.18617249 0.05244255 C50.11760763 0.04698094 52.04905927 0.07023686 53.98034668 0.09474182 C55.07858765 0.1009404 56.17682861 0.10713898 57.30834961 0.11352539 C60.84216952 0.75261202 62.02947262 1.77083981 64.1541748 4.62818909 C64.76036366 9.40192636 64.87009314 11.46790764 62.3416748 15.56568909 C58.9526067 18.76109616 56.13119054 18.75851446 51.66052246 18.7893219 C49.97329575 18.80373322 49.97329575 18.80373322 48.25198364 18.81843567 C47.03634735 18.82268555 45.82071106 18.82693542 44.5682373 18.83131409 C42.69463028 18.8398642 42.69463028 18.8398642 40.78317261 18.84858704 C38.13857377 18.85804007 35.4940885 18.86493547 32.8494873 18.86842346 C29.46782395 18.87390609 26.08656366 18.89793364 22.70502663 18.92639542 C19.47196084 18.949546 16.23887437 18.95147293 13.0057373 18.95631409 C11.79414948 18.96866089 10.58256165 18.98100769 9.33425903 18.99372864 C8.2031369 18.99072754 7.07201477 18.98772644 5.90661621 18.9846344 C4.91416901 18.98828003 3.9217218 18.99192566 2.89920044 18.99568176 C-1.28382537 18.43567557 -3.9040784 16.56993588 -6.8458252 13.62818909 C-7.52686233 6.70431151 -7.52686233 6.70431151 -5.20288086 3.03213501 C-2.8458252 0.62818909 -2.8458252 0.62818909 0 0 Z " fill="#0AAF8F" transform="translate(250.8458251953125,165.37181091308594)"/>
<path d="M0 0 C4.19180845 3.55392456 5.79296729 5.80545322 6.3125 11.3125 C5.93324687 15.78768692 4.96949544 17.64980002 2 21 C-1.76099739 23.19982866 -4.20406704 24 -8.5625 24 C-12.91537408 22.73370936 -14.80518897 21.19481103 -18 18 C-19.24133624 14.27599129 -19.54111486 10.86824 -19 7 C-16.6606826 2.64402967 -14.56963229 -0.1434559 -9.75 -1.75 C-6.00428636 -2.09051942 -3.49655135 -1.37364517 0 0 Z " fill="#1F3635" transform="translate(889,205)"/>
<path d="M0 0 C7.26 0 14.52 0 22 0 C22 3.3 22 6.6 22 10 C21.67 10 21.34 10 21 10 C21 7.03 21 4.06 21 1 C14.73 1 8.46 1 2 1 C2 27.4 2 53.8 2 81 C8.27 81 14.54 81 21 81 C20.98952637 79.56688477 20.97905273 78.13376953 20.96826172 76.65722656 C20.93207207 71.34214779 20.9091032 66.02707992 20.89013672 60.71191406 C20.8800768 58.41111418 20.86642738 56.1103271 20.84912109 53.80957031 C20.82487265 50.5032231 20.81351677 47.19704488 20.8046875 43.890625 C20.78920364 42.3466806 20.78920364 42.3466806 20.77340698 40.77154541 C20.77325592 39.81085144 20.77310486 38.85015747 20.77294922 37.86035156 C20.768508 37.01651917 20.76406677 36.17268677 20.75949097 35.30328369 C21 33 21 33 23 29 C23 46.82 23 64.64 23 83 C15.41 83 7.82 83 0 83 C0 55.61 0 28.22 0 0 Z " fill="#34403E" transform="translate(813,238)"/>
<path d="M0 0 C7.59 0 15.18 0 23 0 C23 27.39 23 54.78 23 83 C15.41 83 7.82 83 0 83 C0 55.61 0 28.22 0 0 Z M1 1 C1 27.4 1 53.8 1 81 C7.6 81 14.2 81 21 81 C21 54.6 21 28.2 21 1 C14.4 1 7.8 1 1 1 Z " fill="#303737" transform="translate(871,238)"/>
<path d="M0 0 C0.33 0 0.66 0 1 0 C1 19.14 1 38.28 1 58 C-6.26 58 -13.52 58 -21 58 C-21 39.52 -21 21.04 -21 2 C-19.0934153 5.8131694 -18.75262918 7.02057686 -18.77294922 11.04394531 C-18.77310028 12.04468079 -18.77325134 13.04541626 -18.77340698 14.07647705 C-18.78372955 15.14952087 -18.79405212 16.2225647 -18.8046875 17.328125 C-18.8075174 18.43226746 -18.81034729 19.53640991 -18.81326294 20.67401123 C-18.82445511 24.1994512 -18.84955825 27.72463685 -18.875 31.25 C-18.88503103 33.64062133 -18.89415667 36.03124664 -18.90234375 38.421875 C-18.92439135 44.28134795 -18.95891489 50.14063086 -19 56 C-12.73 56 -6.46 56 0 56 C0 37.52 0 19.04 0 0 Z " fill="#071A18" transform="translate(708,263)"/>
<path d="M0 0 C0.33 0 0.66 0 1 0 C1 2.64 1 5.28 1 8 C2.91425781 7.94779297 2.91425781 7.94779297 4.8671875 7.89453125 C6.53644521 7.86639769 8.2057171 7.83909707 9.875 7.8125 C11.13763672 7.77479492 11.13763672 7.77479492 12.42578125 7.73632812 C13.23144531 7.72666016 14.03710938 7.71699219 14.8671875 7.70703125 C15.98262939 7.68346558 15.98262939 7.68346558 17.12060547 7.65942383 C18.05090576 7.82800903 18.05090576 7.82800903 19 8 C19.99 9.485 19.99 9.485 21 11 C17.52085059 11.02887814 14.04173169 11.04675687 10.5625 11.0625 C9.07266602 11.07506836 9.07266602 11.07506836 7.55273438 11.08789062 C6.60849609 11.09111328 5.66425781 11.09433594 4.69140625 11.09765625 C3.81685791 11.10289307 2.94230957 11.10812988 2.04125977 11.11352539 C0 11 0 11 -1 10 C-1.0979057 8.50261876 -1.12974864 7.00057108 -1.125 5.5 C-1.12757813 4.6853125 -1.13015625 3.870625 -1.1328125 3.03125 C-1 1 -1 1 0 0 Z " fill="#515E5E" transform="translate(583,171)"/>
<path d="M0 0 C0.54817383 0.64743164 1.09634766 1.29486328 1.66113281 1.96191406 C4.4731699 4.41231966 5.74753072 4.5277229 9.421875 4.609375 C10.44667969 4.64160156 11.47148438 4.67382812 12.52734375 4.70703125 C13.59082031 4.72121094 14.65429688 4.73539063 15.75 4.75 C16.82894531 4.77964844 17.90789063 4.80929688 19.01953125 4.83984375 C21.67976244 4.91046936 24.33912102 4.96320196 27 5 C27.33 4.34 27.66 3.68 28 3 C28.66 4.32 29.32 5.64 30 7 C25.56284145 7.14483042 21.12628723 7.23391752 16.6875 7.3125 C15.42486328 7.35439453 14.16222656 7.39628906 12.86132812 7.43945312 C11.65283203 7.45556641 10.44433594 7.47167969 9.19921875 7.48828125 C8.08377686 7.51446533 6.96833496 7.54064941 5.8190918 7.56762695 C3 7 3 7 1.11254883 4.59448242 C0 2 0 2 0 0 Z " fill="#464F4F" transform="translate(670,175)"/>
<path d="M0 0 C0.33 0.99 0.66 1.98 1 3 C0.01 3.66 -0.98 4.32 -2 5 C-2.73606499 8.56769552 -2.73606499 8.56769552 -3 12 C-3.66 11.67 -4.32 11.34 -5 11 C-4.50769231 4.6 -4.50769231 4.6 -1.9375 1.5625 C-0.9784375 0.7890625 -0.9784375 0.7890625 0 0 Z " fill="#2EAF8E" transform="translate(180,271)"/>
<path d="M0 0 C0.33 0.99 0.66 1.98 1 3 C4.96 3.33 8.92 3.66 13 4 C13 4.33 13 4.66 13 5 C8.38 5 3.76 5 -1 5 C-0.67 3.35 -0.34 1.7 0 0 Z " fill="#0A1514" transform="translate(770,117)"/>
<path d="M0 0 C0.66 0.33 1.32 0.66 2 1 C-0.65654657 4.73884332 -2.58110387 6.64978174 -7 8 C-5.08864614 4.46399535 -3.37357234 2.21027154 0 0 Z " fill="#142221" transform="translate(553,244)"/>
<path d="M0 0 C0.33 0.66 0.66 1.32 1 2 C-0.32 3.65 -1.64 5.3 -3 7 C-3.99 6.67 -4.98 6.34 -6 6 C-4.02 4.02 -2.04 2.04 0 0 Z " fill="#21AF8F" transform="translate(164,82)"/>
</svg>
